# stage_02 - generated by generator/signage.py
mtllib stage_02.mtl
o stage_02
v 0.000000 0.000000 0.000000
v 0.300000 0.000000 0.000000
v 0.299358 0.000000 0.019621
v 0.297433 0.000000 0.039158
v 0.294236 0.000000 0.058527
v 0.289778 0.000000 0.077646
v 0.284079 0.000000 0.096432
v 0.277164 0.000000 0.114805
v 0.269062 0.000000 0.132687
v 0.259808 0.000000 0.150000
v 0.249441 0.000000 0.166671
v 0.238006 0.000000 0.182628
v 0.225552 0.000000 0.197804
v 0.212132 0.000000 0.212132
v 0.197804 0.000000 0.225552
v 0.182628 0.000000 0.238006
v 0.166671 0.000000 0.249441
v 0.150000 0.000000 0.259808
v 0.132687 0.000000 0.269062
v 0.114805 0.000000 0.277164
v 0.096432 0.000000 0.284079
v 0.077646 0.000000 0.289778
v 0.058527 0.000000 0.294236
v 0.039158 0.000000 0.297433
v 0.019621 0.000000 0.299358
v 0.000000 0.000000 0.300000
v -0.019621 0.000000 0.299358
v -0.039158 0.000000 0.297433
v -0.058527 0.000000 0.294236
v -0.077646 0.000000 0.289778
v -0.096432 0.000000 0.284079
v -0.114805 0.000000 0.277164
v -0.132687 0.000000 0.269062
v -0.150000 0.000000 0.259808
v -0.166671 0.000000 0.249441
v -0.182628 0.000000 0.238006
v -0.197804 0.000000 0.225552
v -0.212132 0.000000 0.212132
v -0.225552 0.000000 0.197804
v -0.238006 0.000000 0.182628
v -0.249441 0.000000 0.166671
v -0.259808 0.000000 0.150000
v -0.269062 0.000000 0.132687
v -0.277164 0.000000 0.114805
v -0.284079 0.000000 0.096432
v -0.289778 0.000000 0.077646
v -0.294236 0.000000 0.058527
v -0.297433 0.000000 0.039158
v -0.299358 0.000000 0.019621
v -0.300000 0.000000 0.000000
v -0.299358 0.000000 -0.019621
v -0.297433 0.000000 -0.039158
v -0.294236 0.000000 -0.058527
v -0.289778 0.000000 -0.077646
v -0.284079 0.000000 -0.096432
v -0.277164 0.000000 -0.114805
v -0.269062 0.000000 -0.132687
v -0.259808 0.000000 -0.150000
v -0.249441 0.000000 -0.166671
v -0.238006 0.000000 -0.182628
v -0.225552 0.000000 -0.197804
v -0.212132 0.000000 -0.212132
v -0.197804 0.000000 -0.225552
v -0.182628 0.000000 -0.238006
v -0.166671 0.000000 -0.249441
v -0.150000 0.000000 -0.259808
v -0.132687 0.000000 -0.269062
v -0.114805 0.000000 -0.277164
v -0.096432 0.000000 -0.284079
v -0.077646 0.000000 -0.289778
v -0.058527 0.000000 -0.294236
v -0.039158 0.000000 -0.297433
v -0.019621 0.000000 -0.299358
v -0.000000 0.000000 -0.300000
v 0.019621 0.000000 -0.299358
v 0.039158 0.000000 -0.297433
v 0.058527 0.000000 -0.294236
v 0.077646 0.000000 -0.289778
v 0.096432 0.000000 -0.284079
v 0.114805 0.000000 -0.277164
v 0.132687 0.000000 -0.269062
v 0.150000 0.000000 -0.259808
v 0.166671 0.000000 -0.249441
v 0.182628 0.000000 -0.238006
v 0.197804 0.000000 -0.225552
v 0.212132 0.000000 -0.212132
v 0.225552 0.000000 -0.197804
v 0.238006 0.000000 -0.182628
v 0.249441 0.000000 -0.166671
v 0.259808 0.000000 -0.150000
v 0.269062 0.000000 -0.132687
v 0.277164 0.000000 -0.114805
v 0.284079 0.000000 -0.096432
v 0.289778 0.000000 -0.077646
v 0.294236 0.000000 -0.058527
v 0.297433 0.000000 -0.039158
v 0.299358 0.000000 -0.019621
vt 0.500000 0.500000
vt 1.000000 0.500000
vt 0.998929 0.532702
vt 0.995722 0.565263
vt 0.990393 0.597545
vt 0.982963 0.629410
vt 0.973465 0.660720
vt 0.961940 0.691342
vt 0.948436 0.721144
vt 0.933013 0.750000
vt 0.915735 0.777785
vt 0.896677 0.804381
vt 0.875920 0.829673
vt 0.853553 0.853553
vt 0.829673 0.875920
vt 0.804381 0.896677
vt 0.777785 0.915735
vt 0.750000 0.933013
vt 0.721144 0.948436
vt 0.691342 0.961940
vt 0.660720 0.973465
vt 0.629410 0.982963
vt 0.597545 0.990393
vt 0.565263 0.995722
vt 0.532702 0.998929
vt 0.500000 1.000000
vt 0.467298 0.998929
vt 0.434737 0.995722
vt 0.402455 0.990393
vt 0.370590 0.982963
vt 0.339280 0.973465
vt 0.308658 0.961940
vt 0.278856 0.948436
vt 0.250000 0.933013
vt 0.222215 0.915735
vt 0.195619 0.896677
vt 0.170327 0.875920
vt 0.146447 0.853553
vt 0.124080 0.829673
vt 0.103323 0.804381
vt 0.084265 0.777785
vt 0.066987 0.750000
vt 0.051564 0.721144
vt 0.038060 0.691342
vt 0.026535 0.660720
vt 0.017037 0.629410
vt 0.009607 0.597545
vt 0.004278 0.565263
vt 0.001071 0.532702
vt 0.000000 0.500000
vt 0.001071 0.467298
vt 0.004278 0.434737
vt 0.009607 0.402455
vt 0.017037 0.370590
vt 0.026535 0.339280
vt 0.038060 0.308658
vt 0.051564 0.278856
vt 0.066987 0.250000
vt 0.084265 0.222215
vt 0.103323 0.195619
vt 0.124080 0.170327
vt 0.146447 0.146447
vt 0.170327 0.124080
vt 0.195619 0.103323
vt 0.222215 0.084265
vt 0.250000 0.066987
vt 0.278856 0.051564
vt 0.308658 0.038060
vt 0.339280 0.026535
vt 0.370590 0.017037
vt 0.402455 0.009607
vt 0.434737 0.004278
vt 0.467298 0.001071
vt 0.500000 0.000000
vt 0.532702 0.001071
vt 0.565263 0.004278
vt 0.597545 0.009607
vt 0.629410 0.017037
vt 0.660720 0.026535
vt 0.691342 0.038060
vt 0.721144 0.051564
vt 0.750000 0.066987
vt 0.777785 0.084265
vt 0.804381 0.103323
vt 0.829673 0.124080
vt 0.853553 0.146447
vt 0.875920 0.170327
vt 0.896677 0.195619
vt 0.915735 0.222215
vt 0.933013 0.250000
vt 0.948436 0.278856
vt 0.961940 0.308658
vt 0.973465 0.339280
vt 0.982963 0.370590
vt 0.990393 0.402455
vt 0.995722 0.434737
vt 0.998929 0.467298
vn 0.000000 -1.000000 0.000000
usemtl stage_02_mat
f 1/1/1 2/2/1 3/3/1
f 1/1/1 3/3/1 4/4/1
f 1/1/1 4/4/1 5/5/1
f 1/1/1 5/5/1 6/6/1
f 1/1/1 6/6/1 7/7/1
f 1/1/1 7/7/1 8/8/1
f 1/1/1 8/8/1 9/9/1
f 1/1/1 9/9/1 10/10/1
f 1/1/1 10/10/1 11/11/1
f 1/1/1 11/11/1 12/12/1
f 1/1/1 12/12/1 13/13/1
f 1/1/1 13/13/1 14/14/1
f 1/1/1 14/14/1 15/15/1
f 1/1/1 15/15/1 16/16/1
f 1/1/1 16/16/1 17/17/1
f 1/1/1 17/17/1 18/18/1
f 1/1/1 18/18/1 19/19/1
f 1/1/1 19/19/1 20/20/1
f 1/1/1 20/20/1 21/21/1
f 1/1/1 21/21/1 22/22/1
f 1/1/1 22/22/1 23/23/1
f 1/1/1 23/23/1 24/24/1
f 1/1/1 24/24/1 25/25/1
f 1/1/1 25/25/1 26/26/1
f 1/1/1 26/26/1 27/27/1
f 1/1/1 27/27/1 28/28/1
f 1/1/1 28/28/1 29/29/1
f 1/1/1 29/29/1 30/30/1
f 1/1/1 30/30/1 31/31/1
f 1/1/1 31/31/1 32/32/1
f 1/1/1 32/32/1 33/33/1
f 1/1/1 33/33/1 34/34/1
f 1/1/1 34/34/1 35/35/1
f 1/1/1 35/35/1 36/36/1
f 1/1/1 36/36/1 37/37/1
f 1/1/1 37/37/1 38/38/1
f 1/1/1 38/38/1 39/39/1
f 1/1/1 39/39/1 40/40/1
f 1/1/1 40/40/1 41/41/1
f 1/1/1 41/41/1 42/42/1
f 1/1/1 42/42/1 43/43/1
f 1/1/1 43/43/1 44/44/1
f 1/1/1 44/44/1 45/45/1
f 1/1/1 45/45/1 46/46/1
f 1/1/1 46/46/1 47/47/1
f 1/1/1 47/47/1 48/48/1
f 1/1/1 48/48/1 49/49/1
f 1/1/1 49/49/1 50/50/1
f 1/1/1 50/50/1 51/51/1
f 1/1/1 51/51/1 52/52/1
f 1/1/1 52/52/1 53/53/1
f 1/1/1 53/53/1 54/54/1
f 1/1/1 54/54/1 55/55/1
f 1/1/1 55/55/1 56/56/1
f 1/1/1 56/56/1 57/57/1
f 1/1/1 57/57/1 58/58/1
f 1/1/1 58/58/1 59/59/1
f 1/1/1 59/59/1 60/60/1
f 1/1/1 60/60/1 61/61/1
f 1/1/1 61/61/1 62/62/1
f 1/1/1 62/62/1 63/63/1
f 1/1/1 63/63/1 64/64/1
f 1/1/1 64/64/1 65/65/1
f 1/1/1 65/65/1 66/66/1
f 1/1/1 66/66/1 67/67/1
f 1/1/1 67/67/1 68/68/1
f 1/1/1 68/68/1 69/69/1
f 1/1/1 69/69/1 70/70/1
f 1/1/1 70/70/1 71/71/1
f 1/1/1 71/71/1 72/72/1
f 1/1/1 72/72/1 73/73/1
f 1/1/1 73/73/1 74/74/1
f 1/1/1 74/74/1 75/75/1
f 1/1/1 75/75/1 76/76/1
f 1/1/1 76/76/1 77/77/1
f 1/1/1 77/77/1 78/78/1
f 1/1/1 78/78/1 79/79/1
f 1/1/1 79/79/1 80/80/1
f 1/1/1 80/80/1 81/81/1
f 1/1/1 81/81/1 82/82/1
f 1/1/1 82/82/1 83/83/1
f 1/1/1 83/83/1 84/84/1
f 1/1/1 84/84/1 85/85/1
f 1/1/1 85/85/1 86/86/1
f 1/1/1 86/86/1 87/87/1
f 1/1/1 87/87/1 88/88/1
f 1/1/1 88/88/1 89/89/1
f 1/1/1 89/89/1 90/90/1
f 1/1/1 90/90/1 91/91/1
f 1/1/1 91/91/1 92/92/1
f 1/1/1 92/92/1 93/93/1
f 1/1/1 93/93/1 94/94/1
f 1/1/1 94/94/1 95/95/1
f 1/1/1 95/95/1 96/96/1
f 1/1/1 96/96/1 97/97/1
f 1/1/1 97/97/1 2/2/1
